<?xml version="1.0" encoding="UTF-8"?>
<svg id="Layer_1" data-name="Layer 1" xmlns="http://www.w3.org/2000/svg" viewBox="0 0 231.67 257.99">
  <defs>
    <style>
      .cls-1 {
        fill: #fff;
      }

      .cls-2 {
        fill: #ca0000;
      }
    </style>
  </defs>
  <g>
    <g>
      <rect class="cls-1" x="75.35" y="93.42" width="20.28" height=".48"/>
      <rect class="cls-1" x="75.38" y="122.74" width="20.28" height=".48"/>
      <path class="cls-1" d="m159.69,97.49v4.32h-65.21v-16.79h60.15c2.07,3.38,3.65,7.06,4.67,10.89.14.52.27,1.05.39,1.58Z"/>
      <path class="cls-1" d="m159.75,114.39v1.02c-.67,3.06-1.69,6.03-3.08,8.85-1.2,2.44-2.65,4.77-4.32,6.92h-57.81v-16.79h65.21Z"/>
      <path class="cls-1" d="m154.63,85.02h-60.13v-.48h59.83c.1.16.2.32.3.48Z"/>
      <rect class="cls-1" x="85.68" y="122.31" width="17.25" height=".48" transform="translate(-28.24 216.86) rotate(-90)"/>
      <rect class="cls-1" x="85.66" y="92.94" width="17.26" height=".48" transform="translate(1.11 187.47) rotate(-90)"/>
      <rect class="cls-1" x="94.5" y="113.92" width="65.79" height=".48"/>
    </g>
    <g id="_6f3198ff" data-name="#6f3198ff">
      <path class="cls-1" d="m116.87,59.36c.74.02,1.51-.33,2.21.01-1.57.1-3.13.18-4.7.3-.75,0-1.46.35-2.22.24,1.54-.35,3.12-.59,4.7-.55Z"/>
      <path class="cls-1" d="m99.26,65.04c1.26-.84,2.59-1.66,4.08-1.98-1.39.59-2.72,1.33-4.08,1.98Z"/>
      <path class="cls-1" d="m160.05,113.92c-.03.16-.06.32-.09.48-.06.34-.13.67-.21,1.01-.67,3.06-1.69,6.03-3.08,8.85-1.2,2.44-2.65,4.77-4.32,6.92-.71.92-1.47,1.82-2.27,2.67-.66.73-1.53,1.23-2.21,1.94.01.06.03.17.04.23-2.04,1.9-4.28,3.58-6.67,5.01-1.72.86-3.34,1.92-5.14,2.61-1.53.53-3,1.25-4.61,1.53-2.87.95-5.9,1.37-8.91,1.56-.68-.24-1.39-.33-2.1-.16-.55-.04-1.1-.05-1.65-.11l-.12-.05c.37-.03.74-.06,1.12-.08,2.1-.1,4.2-.3,6.26-.74,1.69-.29,3.4-.49,5.05-.96,1.26-.4,2.43-1.05,3.64-1.56.46-.2.98-.2,1.43-.45,1.07-.55,2.11-1.17,3.15-1.78.9-.55,1.95-.84,2.77-1.53.81-.68,1.67-1.32,2.32-2.16.38-.45.89-.76,1.32-1.15,1.69-1.45,3.31-2.99,4.62-4.79,0-.01.02-.02.02-.03,2.4-3.26,4.32-6.88,5.79-10.65.67-1.77,1.2-3.59,1.62-5.44.03-.16.06-.32.09-.48.01-.07.02-.14.04-.21,0,0,0,0,0,0,.02-.13.05-.26.07-.39,0-.03.01-.05.02-.08.74-3.99.84-8.1.26-12.11,0-.04-.01-.08-.02-.13-.29-2.14-.79-4.25-1.44-6.31-.43-1.42-.98-2.79-1.57-4.15-.43-1-.94-1.97-1.45-2.94-.55-1.01-1.14-2-1.79-2.95-.02-.02-.05-.07-.07-.1-.05-.07-.1-.14-.14-.21-.08-.12-.17-.25-.25-.37-.02-.03-.05-.07-.07-.1-1.44-2.08-3.07-4.04-4.94-5.76-2.27-2.09-4.7-4.04-7.42-5.53-5.66-3.18-12.14-4.62-18.58-4.95-2.05-.12-4.11-.24-6.17-.15-3.02.3-5.96,1.14-8.76,2.29.02.05.06.15.08.2-.06,0-.17,0-.22,0-.2.15-.41.28-.65.36-2.41.89-4.72,2.06-6.86,3.48-1.78,1.15-3.44,2.49-5.33,3.47-.35.19-.75.24-1.14.24.06-.71.56-1.25,1-1.77.65-.73,1.29-1.49,2.06-2.11,4.33-3.46,9.34-6.09,14.72-7.48,3.02-.82,6.16-1.1,9.28-1.15,6.77-.09,13.58,1.32,19.67,4.33,5.41,2.67,10.22,6.57,13.88,11.37.79,1.02,1.53,2.07,2.22,3.16.1.16.2.32.3.48,2.07,3.38,3.65,7.06,4.67,10.89.14.52.27,1.05.39,1.58,1.21,5.38,1.34,11.01.36,16.44Z"/>
      <path class="cls-1" d="m96.25,66.6c.27-.2.61-.28.94-.32-1.65,1.18-3.4,2.24-4.97,3.52-1.82,1.42-3.47,3.04-5.14,4.63.55-.89,1.28-1.64,1.99-2.41.31-.31.63-.62.95-.92.58-.57,1.35-.87,2-1.36,1.4-1.07,2.78-2.17,4.24-3.16Z"/>
      <path class="cls-1" d="m90.2,70.41c.23-.27.51-.49.83-.64-.22.28-.49.52-.83.64Z"/>
      <path class="cls-1" d="m87.83,72.14c.45-.44.92-.85,1.45-1.19-.29.59-.89.9-1.45,1.19Z"/>
      <path class="cls-1" d="m86.78,73.57c.52-.48,1.04-1,1.67-1.34-2.09,2.14-4,4.46-5.65,6.96-.97,1.39-2.02,2.73-2.91,4.18-1.09,1.66-1.56,3.61-2.32,5.42-.17.38-.51.66-.63,1.06-.35,1.04-.65,2.11-.92,3.18-.1.4-.21.8-.31,1.19-.12.45-.24.9-.41,1.33-.39.92-.64,1.9-.7,2.9-.04.76-.23,1.54-.03,2.29.05-.02.14-.06.18-.08-.28.4-.16.88-.2,1.34-.38,3.33-.52,6.71.04,10.03.55,3.55,1.55,7.02,2.78,10.38.14.39.29.77.45,1.15,2.13,5.38,5.29,10.36,9.29,14.55,7.43,7.84,17.71,12.83,28.41,14.1,3.31.45,6.68.37,10,.02,8.08-.66,15.75-4.08,22.21-8.88,3.17-2.34,6.08-5.01,8.93-7.72,1.53-1.49,2.75-3.26,3.86-5.08.98-1.65,1.89-3.35,2.61-5.14.13-.25.09-.52.06-.78.92-2.05,1.76-4.14,2.37-6.3.86-2.88,1.18-5.87,1.85-8.79.2-.75.34-1.53.7-2.23.13-.22.32-.56.63-.45.32.36.36.87.44,1.32.18,1.74.3,3.51.03,5.24-.6,4.59-1.82,9.11-3.7,13.34-1.54,3.41-3.44,6.67-5.85,9.54-4.89,5.99-11.04,10.99-18.02,14.34-7.84,3.79-16.73,5.39-25.39,4.49-10.26-1.06-20.17-5.41-27.81-12.36-4.56-4.08-8.34-9.03-11.06-14.52-2.97-6-4.63-12.63-4.84-19.32-.02-.42,0-.83.08-1.24.19-.88.14-1.78.13-2.67l-.19.02c.2-3.26.62-6.52,1.49-9.67.49-1.31.74-2.7,1.21-4.01.43-1.13.83-2.28,1.4-3.35.54-1.47,1.25-2.88,2.13-4.18.61-1.38,1.48-2.62,2.32-3.87,1.48-2.14,3.16-4.14,4.93-6.05-.22.33-.41.68-.6,1.04.56-.35.94-.87,1.35-1.37Z"/>
      <path class="cls-1" d="m92.69,135.65c1.06.97,2.15,1.9,3.23,2.86.41.37.96.56,1.31,1-1.16-.62-2.18-1.49-3.1-2.43-.51-.44-1.11-.81-1.43-1.43Z"/>
      <path class="cls-1" d="m104.36,143c1.27.36,2.49.88,3.77,1.2-1.31-.17-2.59-.59-3.77-1.2Z"/>
      <path class="cls-1" d="m109.98,144.73c1.67.16,3.29.76,4.98.73-.1.07-.2.14-.3.21-1.33-.25-2.69-.34-4.01-.63-.25-.06-.47-.18-.68-.31Z"/>
      <path class="cls-1" d="m114.93,145.76c.1-.07.19-.14.29-.21,1.88.28,3.79.25,5.68.31-.78.18-1.59.19-2.39.22-.43,0-.86,0-1.29,0-.79.07-1.51-.39-2.29-.31Z"/>
    </g>
  </g>
  <g id="_e3d7ebff" data-name="#e3d7ebff">
    <path class="cls-1" d="m73.53,70.55c.16.05.32.1.49.15-.06.13-.08.27-.05.41-.32.3-.64.6-.95.92-.21.05-.42.11-.62.2-.63.34-1.15.86-1.67,1.34-.03-.09-.08-.26-.11-.34l-.02-.08c.35-.38.71-.78,1.18-1.01.56-.29,1.15-.61,1.45-1.19.09-.14.2-.27.3-.4Z"/>
  </g>
  <g id="_bb9eceff" data-name="#bb9eceff">
    <path class="cls-1" d="m69.98,73.91c.18-.25.42-.46.64-.67.03.09.08.26.11.34-.41.5-.79,1.02-1.35,1.37.19-.35.38-.7.6-1.04Z"/>
  </g>
  <g id="_cbb4d9ff" data-name="#cbb4d9ff">
    <path class="cls-1" d="m89.16,144.09c.2-.1.62.03.64.27-.21.09-.62-.03-.64-.27Z"/>
  </g>
  <g id="_ddcee7ff" data-name="#ddcee7ff">
    <path class="cls-1" d="m101.17,146.08c.43,0,.86,0,1.29,0,.44.09.88.17,1.32.24-.37.02-.75.04-1.12.08-.21.02-.42.05-.62.08-.2.02-.39.08-.58.14-.12.03-.36.1-.48.13.02-.09.07-.26.09-.35-.34.05-.68.08-1.02.04.07-.03.21-.08.29-.11.27-.1.55-.2.84-.25Z"/>
  </g>
  <g id="_b595caff" data-name="#b595caff">
    <path class="cls-1" d="m100.04,146.43c-.13.07-.58-.1-.29-.23.21-.05.4,0,.58.12-.07.03-.21.08-.29.11Z"/>
  </g>
  <g id="_c6add6ff" data-name="#c6add6ff">
    <path class="cls-1" d="m102.04,146.48c.21-.03.41-.06.62-.08l.12.05c.5.35,1.1.22,1.65.11.71-.16,1.42-.08,2.1.16-.81.2-1.66.11-2.48.12-.67-.02-1.35.09-2-.1.06-.03.18-.09.23-.11-.06-.04-.19-.11-.25-.15Z"/>
  </g>
  <g id="_8f5eaeff" data-name="#8f5eaeff">
    <path class="cls-1" d="m101.46,146.61c.19-.05.38-.12.58-.14.06.04.19.11.25.15-.06.03-.18.09-.23.11-.22.04-.42,0-.6-.13Z"/>
  </g>
  <g id="_dfd1e8ff" data-name="#dfd1e8ff">
    <path class="cls-1" d="m102.79,146.45c.55.06,1.1.07,1.65.11-.55.12-1.16.24-1.65-.11Z"/>
  </g>
  <g>
    <path class="cls-2" d="m52.87,202.16l-.02.17-.13.05h-.12l-.25-.11-.23-.11h-.62l-.41.13-.47.09-.58.29-.4.07h-.25l-.25.11-.67.02h-.56l-.59.05-.51.1-.26.09-.17.27-.07.3-.05.46-.04.45-.09.77.02.16-.08.51.08.05.14-.04.22-.09.3-.27.27-.11h.58l.76.02.48.04.09.07.15.12h.45l.16.11.17-.02.34.11.36.05.02.09-.06.07-.21.15h-.2l-.16-.04-.6-.02-.66.11-.62.07-.56.09-.55.04-.45.17-.43-.31-.06.48.03.34.04.43.11.47.16.52.17.47.5.7.27.31.38.24.38.19.47.24.56.07.59.11.45.11.29-.02.25.08.69.11.14.12-.04.13-.05.16-.2.04-.43-.05-.45.02-.7.04-.48-.04-.36-.12-.17.02-.25-.05-.49-.13-.33-.07-.25-.22-.27-.18-.24-.18-.25-.41-.27-.43-.05-.4.05-.27-.21-.4-.06-.43-.16-.23-.04-.51-.09-.33.05-.33-.1-.49.1-.33-.13-.23.06-.1-.03-.26.1-.29-.05-.29.14-.31-.05-.41v-.33l.12-.21-.04-.31.07-.18-.04-.33-.16-.18-.33-.33-.02-.18.02-.31.07-.4.12-.29.33-.21.29-.1.22-.09.38.11.41.2.54.02.74-.02.98-.04h.57l.45.12.46.04.34.05.32.1.24.07h.16l.34.19.29.18.15.19Zm-5.78,9.04l-.04.12-.16-.02v-.15l.12-.09.07.13Z"/>
    <path class="cls-2" d="m61.03,211.16l-.02.18-.07.22-.16.04v-.34l-.05-.18-.08-.25-.03-.33-.05-.33-.07-.2-.05-.28-.1-.78-.11-.19-.16-.18-.17-.04-.14-.03h-.24s-.21-.01-.21-.01l-.22-.04-.26.18-.15.09-.09.25-.09.17-.07.27-.1.3-.09.24-.05.31-.04.24.02.32-.02.17v.41l-.05.25-.02.17-.11.18h-.16l-.12-.1-.04-.12v-.48l.03-.34v-.67l.02-.31-.02-.32v-.28l-.03-.25v-.63l-.05-.27-.11-.25-.16-.09-.25.04-.22.09-.16.14-.17.17-.19.25-.16.24-.15.29-.12.32-.15.39-.05.41-.04.33-.05.34v.32l.04.29v.39l-.12.25-.2.22-.21.05h-.2l-.12-.1-.09-.12-.13-.4-.05-.41-.07-.36v-.41l-.02-.41-.05-.41-.02-.4-.08-.34v-.34l.04-.25-.04-.21-.09-.25-.11-.25-.22-.43.06-.24.11-.16.09-.11.29-.13.21-.07.31.04.33.07.24.1.26.12.17.16.11.13.09.16.24-.04.25-.11.23-.07.17-.11.33-.07.23.09.2.11.16.16.09.22v.18l.06.25.02.23.12-.16.14-.09.17-.22.16-.18.18-.11.18-.14.2-.07.18-.04.18.02.18.11.25.09.21.17.15.19.11.18.09.19.04.24v.25l.04.25v.22l.06.27.04.32.09.24.05.22.02.21v.27l.02.24.02.18.09.14Zm-.14-4.25l-.24.09-.09-.14.09-.2.18.1.05.16Z"/>
    <path class="cls-2" d="m63.57,209.49l-.05.14-.14.04-.08-.19.15-.07.12.09Zm.36,4.05l-.02.14-.12-.02-.09-.09.14-.11.09.07Zm4.68-4.34l-.06.33-.09.29-.25.57-.24.22-.16.11-.22.11-.25.11-.26.05h-.58l-.24-.05-.18-.05-.14-.18-.08-.18-.02-.17.02-.09.08-.12h.14l.09.07v.18l.04.24.29.16h.27l.18-.04.34-.12.18-.18.26-.34.11-.4.07-.4v-.22l-.13-.24-.07-.23-.02-.25-.11-.18-.11-.2-.11-.16-.18-.13-.18-.05-.25-.07-.25.02-.33.25-.19.19-.1.22-.07.21-.04.29.04.16-.16.15-.13.11-.12.13-.05.16v.25l-.04.25v.2l-.04.21.02.22-.05.16-.07.2-.1.62-.09.4-.04.25-.07.33-.04.38-.15.34-.02.25-.11.29-.09.26-.07.34-.08.31-.04.27-.02.28.02.34.02.2.07.18-.04.17-.18.16-.09.09-.17-.19-.05-.25-.02-.23v-.34l.02-.25.04-.25-.02-.28.05-.08.09-.23.1-.31.07-.18.07-.27.07-.24.1-.21-.11-.31-.02-.36v-.27l.02-.19-.05-.31.04-.54.13-.23-.08-.34.06-.38v-.33l.04-.27-.04-.31.02-.21-.08-.22-.12-.09.05-.2.11-.21.03-.25-.06-.23v-.2l-.07-.18-.27-.42-.11-.52-.02-.16v-.17l.12-.18.18-.2h.29l.55.15.25.07.14.31.05.3.08.13.25-.02.25-.11.65-.09.26.02.31.09.17.1.21.11.24.2.31.5.07.27.11.3.07.25.05.24.04.25.04.33Z"/>
    <path class="cls-2" d="m75.84,209.8l-.04.31-.06.28-.12.22-.09.24-.15.25-.21.15-.14.21-.29.15-.29.11-.34.04-.34.05-.33.04-.34-.07-.28-.05-.27-.11-.22-.1-.23-.21-.2-.24-.21-.12-.15-.24-.11-.25-.12-.24-.02-.27-.03-.34.04-.25.09-.34v-.34l.11-.34.18-.54.19-.18.04-.2.18-.14.23-.16.22-.13.33-.07.21.04.18.11.11.2.04.18-.02.24-.14.18-.17.21-.11.24-.02.23-.18.17-.1.33-.09.21-.02.33v.27l.05.29.12.23.15.18.19.14.18.18.23.07.29.02.04.05.33-.02.29-.05.33-.22.19-.19.15-.29.05-.27v-.36l-.09-.21-.15-.27-.16-.22-.2-.19-.21-.17-.17-.12-.12-.11-.04-.18.07-.12h.17l.16.11.22.09.14.11.29.19.19.15.13.19.16.24.14.21.08.2.05.33Zm-1.8-1.96l-.11.04-.11-.1.07-.07.11.02.04.11Z"/>
    <path class="cls-2" d="m83.98,207.1l-.05.14-.07.14-.09.25-.17.2-.07.18-.09.27-.11.31-.02.3-.08.25v.27l-.02.16-.05.22-.04.27-.04.33-.02.29-.04.25-.11.27-.13.25-.02.24v.21l-.07.24v.25l-.04.16-.05.15-.2.09h-.14l-.11-.15-.06-.28-.02-.22-.12-.12-.02-.15-.05-.19-.09-.36-.04-.24-.04-.18-.05-.2-.05-.21-.05-.15v-.18l-.09-.15-.05-.14-.08-.25-.02-.18-.07-.17-.11-.16-.11-.09-.11.11-.05.18-.07.19-.02.17-.04.12-.11.14-.1.25-.09.21-.09.25-.02.25-.09.23-.06.25-.07.27-.05.29-.09.21-.07.24-.12.16-.18.13-.11.02h-.15l-.12-.08-.02-.12-.07-.19-.05-.22-.06-.2-.04-.32-.09-.18v-.19l-.02-.27v-.24l-.04-.23-.09-.53-.06-.23-.02-.24.02-.22-.04-.26-.05-.24-.09-.18-.05-.2-.07-.16-.11-.1-.12-.14-.07-.18v-.31l.12-.18.11-.12.24-.09.27.04.23.12.17.11.14.17.05.14.11.17.07.23v.25l.04.25-.04.3.04.29v.34l.04.2.04.18.04.2v.16l.05.07.11-.05.11-.07.09-.18.05-.19.08-.24.19-.52.14-.27.13-.19.14-.27.11-.25.06-.16.09-.15.07-.09.2.02.09.13v.18l-.02.2v.18l.02.22.07.19.11.27.04.27.1.28.07.34.07.29.07.27.07.18v.22l.06.23.04.2.05.16.04.18.07.05.11-.16v-.17l-.04-.19-.11-.2-.02-.19.02-.2.07-.29.02-.23v-.25l.02-.27.07-.26.13-.25.05-.27.04-.21.12-.2.11-.18.12-.25.11-.24.13-.16.14-.2.07-.18.13-.15.09-.18.14-.02.02.07.07.18Zm-.99.47l-.05.09-.1-.07v-.07l.1-.04.05.09Z"/>
    <path class="cls-2" d="m91.45,208.54l-.16.24-.25.14-.31.13-.38.12-.41.04-.38.09-.26.13-.31.11-.25.07-.41.02-.33-.04-.22.02-.19.07-.09.2.04.38.11.2.2.25.38.41.19.18.38.19.2.1.25.11h.29l.27-.07.23-.04.25-.1.25-.05h.16l.02.07-.09.1-.16.11-.27.14-.29.15-.27.11-.26.07-.4-.02-.4-.09-.33-.17-.38-.25-.34-.29-.24-.16-.18-.17-.15-.21-.11-.08-.22-.54-.19-.47-.12-.38-.04-.29.03-.33.07-.34.07-.29.09-.19.09-.22.08-.11.16-.14.12-.02.22-.31.25-.22.26-.14.33-.05h.41l.34-.02.47.05.38.11,1.05.52.27.17.25.23.14.18.09.31v.26Zm-1.67-.51l-.15-.16-.23-.12-.25-.11-.29-.04h-.28l-.25.07-.25.11-.23.17-.13.07-.14.16.05.12.12-.02.2.02h.34l.29.07h.3l.33-.02.29-.07.25-.07.04-.19Zm.77,3.19l-.11.09-.1-.09.05-.11h.13l.02.11Z"/>
    <path class="cls-2" d="m97.73,207.64l-.12.04-.17-.02h-.16l-.24.04-.29.17-.14.19-.29.12-.12.15-.24.21-.11.22-.07.2v.26l-.07.2-.08.21-.07.24-.02.25v.57l-.02.25-.07.25-.02.25-.04.27v.25l-.13.26-.16.15-.24.07-.16.04-.14-.04-.13-.14-.07-.17-.07-.18.02-.2-.02-.29v-.41l-.02-.19.02-.22.02-.29v-.25l.04-.29.02-.29-.02-.33v-.26l-.04-.22-.02-.2-.15-.25-.12-.2-.07-.21-.02-.24.04-.22.09-.16.15-.11.25-.09.27-.13.24.04.3.13.04.18.13.24v.36l.11.11.11.02.15-.04.18-.14.24-.15.27-.12.23-.13.27-.04.29-.07h.16l.22.07.07.13v.12Z"/>
    <path class="cls-2" d="m101.37,203.11l-.04.14-.15.17-.12.18v.17l.09.16.09.12v.25l-.09.22-.14.18-.18.15-.23.02-.25-.02-.15-.1-.18-.12-.16-.18-.2-.25-.09-.24-.04-.18.04-.17.09-.19.12-.15.25-.14.22-.04.33-.04.32-.09.22-.02.16.02.1.14Zm.11,3.81l-.05.09-.18.1-.12.11-.05.21-.04.29-.1.29.06.25-.08.21-.02.29-.04.31v.31l.04.38-.04.28v.31l.05.24.08.23-.08.27.1.24v.41l.02.16.07.24.02.25.07.18v.17l.07.16-.09.16-.11.04-.07-.04-.08-.18-.05-.2-.04-.16-.09-.18v-.17l-.12-.27v-.25l-.04-.18v-.25l-.06-.22-.04-.54-.04-.15-.02-.34.02-.23-.02-.25v-.22l-.09-.18-.15-.09-.11-.11-.11-.34-.04-.19v-.7l.04-.31-.05-.33-.02-.21-.07-.2.07-.21.11-.17.14-.05.2-.05.22.05.16.14.16.13h.2l.14.14.13.09.11.1v.16Zm-.99-4.14l-.14.09-.15-.04.04-.16.12-.05.12.16Z"/>
    <path class="cls-2" d="m109.04,211.47l-.07.1-.09.07-.18-.02-.16-.15-.05-.16-.02-.24v-.19l-.07-.25-.02-.25v-.23l-.08-.24-.02-.27-.14-.43-.04-.65-.15-.45-.21-.19-.25-.11-.1-.14-.18-.09-.28.09-.2.07-.18.2-.18.21-.23.33-.1.22-.05.19-.04.18-.14.19-.17.2-.07.29-.02.33v.32l-.04.4-.02.36v.33l.02.31.07.27.05.23.02.22-.09.11-.07.1-.17.04h-.16l-.11-.08-.09-.11-.1-.31-.05-.25-.07-.51v-.19l-.04-.22-.04-.29v-.33l-.04-.31v-.24l-.02-.24-.06-.26v-.33l-.02-.29v-1.12l-.07-.21-.11-.17-.07-.14-.07-.18-.03-.21.03-.17.09-.16.11-.11.2-.15.25-.02.25.02.19.12.18.13.19.19.1.13.07.21.19.1.18-.06.25-.04.25-.07.24-.07.31-.04.25-.04.25.09.12.14.11.25.09.18.04.25.09.17.13.21.09.29.02.25.02.28.05.27.02.27.07.25.02.24v.25l.04.25.1.25.04.25.14.19.07.2v.16Zm-.81.25l-.07.11-.09.04-.07-.14.14-.14.09.14Z"/>
    <path class="cls-2" d="m116.17,207.03l-.1.17-.11.14-.07.25.02.36v.4l.05.41v.54l.07.51-.04.45.04.52-.04.41.04.4-.07.25.04.33-.04.45-.05.4-.04.49-.09.33-.1.3-.16.41-.2.47-.19.34-.4.4-.24.18-.38.15-.38.12-.5.04-.45-.04-.38-.04-.34-.15-.27-.11-.24-.22-.16-.19-.09-.25v-.21l.14-.04.12.09.13.12.16.22.22.14.25.18.31.04.43.12.46-.05.38-.09.28-.15.31-.25.2-.29.21-.34.13-.33.18-.4.05-.41.05-.5.04-.49v-.33l-.04-.32-.02-.22.02-.48-.36.23-.43.13-.5.07-.4-.07-.41-.11-.43-.25-.25-.18-.29-.16-.18-.29-.17-.27.05-.33-.09-.19-.14-.38v-.12l.02-.54.12-.45.11-.33.31-.24.2-.26.05-.34.25-.17.16-.11.11-.18.72-.13.47.07.29.04.25.09.18.12.17.11.18-.02.17-.14.07-.16.24-.04.21.06.12.14.04.16Zm-3.45,5.13l-.02.17-.14.11h-.27l-.12-.18.25-.09.14-.12.16.12Zm2.56-1.73l-.05-.3v-.33l.02-.34-.04-.67-.05-.38-.09-.24-.19-.18-.23.05-.26.15-.26.16-.27.25-.38.16-.43.67-.02.36-.05.29.12.25.22.2.24.34.42.23.33.07.42-.02.41-.07.11-.33.04-.34Z"/>
    <path class="cls-1" d="m134.01,213.33l-.04.09-.11.08-.12-.24-.12-.47-.11-.2v-.12l-.04-.7-.21-.67-.07-.72-.13-.48-.16-.7-.05-.52-.17-.29-.14-.54v-.44l-.12-.36.02-.74-.13-.25-.05-.4-.02-.56.07-.55.11-.31-.11-.34-.05-.36-.02-.41-.22-.18-.19-.08-.24.24-.26.36-.24.45-.2.52-.18.58-.16.48-.15.49-.16.48-.13.27-.14.14-.16.09-.24-.11-.16-.25-.27-.41-.15-.38-.19-.86-.07-.4-.11-.48-.18-.44-.11-.4-.15-.33-.18-.11-.22-.11-.11.24-.14.4-.17.48-.14,1.03-.11.59v.22l-.09.79-.18.95-.02.51.16.18.02.38.09.33-.18.29-.2.29-.34.05h-.33l-.42.02-.28-.12-.2-.15-.11-.34.11-.74.2-.38.16-.07.04-.9.31-1.06.05-.43.22-.4-.02-.25.25-.4v-.25l.51-1.24.07-.25.16-.12.05-.33.24-.31.31-.45.27-.16h.23l.15.18.16.33.11.41.13.45.18.6.09.41.15.48.07.38.07.53.05.43.13.41.23.29.13.11.14-.17.09-.3.17-.34.19-.58.22-.52.12-.4.12-.29-.12-.14-.11-.29.02-.36.16-.38.18-.36.07-.34.24-.41.18-.18.24-.32.33-.2.19-.12.29.07.29.04.3.18.24.22.2.27.05.38.02.45-.02.41-.02.52.04.98v.56l.16.98-.02.48-.04.65-.02.53v.48l-.05.59-.11.24.11.47v.96l.11.19.02.65.07.53.11.97.04.43v.72Zm-7.59-2.8l-.13.12-.14-.02.02-.24h.14l.11.13Zm2.01-10.8l-.09.16-.15-.05.02-.23h.17l.05.12Zm5.89,7.49l-.18.19-.09-.19.12-.18.15.18Z"/>
    <path class="cls-1" d="m142.7,211.49l-.09.15-.11.07-.14.02-.12-.04-.08-.09-.14-.17-.18-.14-.13-.13-.23-.5-.04-.21-.06-.18-.05-.14h-.07l-.09.11-.11.18-.06.17-.05.18-.09.18-.11.16-.13.15-.14.19-.24.13-.18.09-.34.09-.27.02-.21-.04-.24-.12-.29-.08-.19-.16-.24-.12-.14-.15-.2-.18-.07-.27-.11-.29-.07-.28-.08-.34-.07-.2.05-.27-.09-.33-.02-.18-.02-.27-.04-.23-.04-.17.02-.23.05-.18.18-.19.24-.1.18-.02.23.04.22.11.16.12.15.22.09.19.07.27-.04.19-.12.17-.11.19-.02.25-.09.29v.25l.02.34.09.36.13.17.14.23.25.18.25.12.31.09.24-.09.23-.12.18-.18.18-.28.13-.24.11-.24.09-.25.07-.33.04-.38-.08-.33-.05-.29-.05-.12.04-.24-.02-.23.04-.18.05-.16.04-.24.1-.14.11-.07.16.05.08.14.02.12.07.18-.02.18v.27l-.07.27v.12l-.08.11.04.22.04.25.09.23.02.36.09.24.07.31.04.25.1.27.11.2.14.18.15.16.4.18.05.12Zm-3.02-2.29l-.04.41-.25.25-.21-.2-.15-.3.02-.33-.09-.18.11-.11.18.02.18.11.25.33Z"/>
    <path class="cls-1" d="m144.65,206.71l-.13.07-.14-.11.11-.14.17.04v.15Zm3.99,4.12l-.04.25-.09.27-.12.24-.18.18-.23.2-.2.07-.22.12-.19.09-.27.02h-.55l-.18-.14-.25-.02-.34-.09-.29-.11-.17-.14-.18-.07-.11-.2-.1-.19v-.25l.1-.25.07-.16.12-.18.15-.03.07.15-.07.19-.02.22v.25l.12.19.24.09.25.1.22.09.36.04.23.11.29-.07.24-.07.18-.11.24-.17.18-.14.13-.13.02-.25v-.29l-.09-.22-.18-.23-.25-.09-.3-.15-.11-.11-.33-.17-.23-.14-.25-.11-.16-.09-.24-.06-.16-.02-.22-.12-.2-.12-.12-.22-.12-.18-.09-.24-.02-.27.07-.25.02-.22.11-.25.14-.21.15-.2.04-.11.12-.16h.17l.05-.18.19-.05.2-.11.24-.02.26-.04.34-.11.31-.07h.25l.25.07.18.11.21.17.13.09.14.2.05.12v.25l-.12.19-.12.13-.22.09-.36.04-.29-.04-.25-.02-.27.05-.26.12-.18.13-.17.18-.07.25.11.19.17.15.23.05.17.12.16.14.19.15.16.18.17.04.14.08.12.16.17.07.16.1.19.16.14.18.02.25.05.29.04.25Z"/>
    <path class="cls-1" d="m152.74,203.11l-.04.14-.15.17-.12.18v.17l.09.16.09.12v.25l-.09.22-.14.18-.18.15-.23.02-.25-.02-.15-.1-.18-.12-.16-.18-.2-.25-.09-.24-.04-.18.04-.17.09-.19.12-.15.25-.14.22-.04.33-.04.32-.09.22-.02.16.02.1.14Zm.11,3.81l-.05.09-.18.1-.12.11-.05.21-.04.29-.1.29.06.25-.08.21-.02.29-.04.31v.31l.04.38-.04.28v.31l.05.24.08.23-.08.27.1.24v.41l.02.16.07.24.02.25.07.18v.17l.07.16-.09.16-.11.04-.07-.04-.08-.18-.05-.2-.04-.16-.09-.18v-.17l-.12-.27v-.25l-.04-.18v-.25l-.06-.22-.04-.54-.04-.15-.02-.34.02-.23-.02-.25v-.22l-.09-.18-.15-.09-.11-.11-.11-.34-.04-.19v-.7l.04-.31-.05-.33-.02-.21-.07-.2.07-.21.11-.17.14-.05.2-.05.22.05.16.14.16.13h.2l.14.14.13.09.11.1v.16Zm-.99-4.14l-.14.09-.15-.04.04-.16.12-.05.12.16Z"/>
    <path class="cls-1" d="m155.45,208.47l-.09.13-.09-.08-.1-.11.11-.12h.16v.18Zm4.62-.77l-.04.24-.09.18-.24.41-.25.08h-.34l-.29-.1-.23-.04-.31-.09h-.27l-.18.07-.32.18-.18.19-.19.25-.13.25-.07.21-.05.15-.12.11-.08.36-.02.26v.51l.11.27.23.23.2.09.31.1.19.09h.67l.29-.05.16-.07.12-.1.17.02.09.15-.04.12-.18.14-.24.11-.31.12-.27.09-.23.04-.45.04-.42-.04-.25-.11-.24-.11-.25-.17-.18-.07-.11-.25-.11-.22-.07-.25-.04-.33-.09-.36-.05-.4v-.28l-.02-.38.02-.29.05-.31.12-.25.05-.18v-.34l.08-.25.34-.3.16-.08.12-.04.33-.12.22-.07.19-.02.33-.08.33-.12.25-.07.26-.07.25.02.29.05.27.09.26.2.22.14.18.18.05.23Z"/>
    <path class="cls-1" d="m163.91,203.11l-.04.14-.15.17-.12.18v.17l.09.16.09.12v.25l-.09.22-.14.18-.18.15-.23.02-.25-.02-.15-.1-.18-.12-.16-.18-.2-.25-.09-.24-.04-.18.04-.17.09-.19.12-.15.25-.14.22-.04.33-.04.32-.09.22-.02.16.02.1.14Zm.11,3.81l-.05.09-.18.1-.12.11-.05.21-.04.29-.1.29.06.25-.08.21-.02.29-.04.31v.31l.04.38-.04.28v.31l.05.24.08.23-.08.27.1.24v.41l.02.16.07.24.02.25.07.18v.17l.07.16-.09.16-.11.04-.07-.04-.08-.18-.05-.2-.04-.16-.09-.18v-.17l-.12-.27v-.25l-.04-.18v-.25l-.06-.22-.04-.54-.04-.15-.02-.34.02-.23-.02-.25v-.22l-.09-.18-.15-.09-.11-.11-.11-.34-.04-.19v-.7l.04-.31-.05-.33-.02-.21-.07-.2.07-.21.11-.17.14-.05.2-.05.22.05.16.14.16.13h.2l.14.14.13.09.11.1v.16Zm-.99-4.14l-.14.09-.15-.04.04-.16.12-.05.12.16Z"/>
    <path class="cls-1" d="m171.12,211.74l-.02.12-.12.13h-.13l-.14-.15-.07-.23-.11-.18-.07-.25-.07-.07-.11.05-.15.1-.16.19-.25.15-.16.16-.27.14-.31.11-.26.09-.24.07-.18.07-.18-.05-.25-.04-.3-.12-.27-.17-.17-.21-.12-.24-.02-.38v-.25l.05-.28.17-.29.16-.27.22-.19.23-.17.31-.05.27-.04.31-.07.26-.17.34-.18.17-.07.18-.05.07-.18-.14-.25-.17-.23-.35-.33-.36-.11-.29-.02-.11.02h-.18l-.22.11-.19.12-.24.04h-.26l-.31.08h-.27l-.22-.11-.16-.16-.02-.22.05-.19.18-.22.19-.25.24-.19.26-.14.29-.24.27-.12.5-.1.43-.04.31.09.25.13.27.09.31.2.16.16.16.25.11.33.09.32.12.42.11.32.02.27-.02.34.09.4.05.41.16.72.1.27.09.25.07.31.02.25Zm-1.22-1.87l-.07-.11-.25-.07-.22.02-.19.09-.22.07-.23.12-.22.04-.19.1-.17.12-.11.16-.13.2-.04.18-.07.17v.21l.09.18.24.07h.25l.28-.07.13-.14.18-.04.41-.28.2-.13.14-.23.15-.18.02-.25.02-.22Zm.47,1.82l-.07.05-.15-.05.04-.11.11-.06.07.17Zm.7-1.51l-.11.07-.1-.04v-.11l.17-.08.04.15Z"/>
    <path class="cls-1" d="m178.53,211.47l-.07.1-.09.07-.18-.02-.16-.15-.05-.16-.02-.24v-.19l-.07-.25-.02-.25v-.23l-.08-.24-.02-.27-.14-.43-.04-.65-.15-.45-.21-.19-.25-.11-.1-.14-.18-.09-.28.09-.2.07-.18.2-.18.21-.23.33-.1.22-.05.19-.04.18-.14.19-.17.2-.07.29-.02.33v.32l-.04.4-.02.36v.33l.02.31.07.27.05.23.02.22-.09.11-.07.1-.17.04h-.16l-.11-.08-.09-.11-.1-.31-.05-.25-.07-.51v-.19l-.04-.22-.04-.29v-.33l-.04-.31v-.24l-.02-.24-.06-.26v-.33l-.02-.29v-1.12l-.07-.21-.11-.17-.07-.14-.07-.18-.03-.21.03-.17.09-.16.11-.11.2-.15.25-.02.25.02.19.12.18.13.19.19.1.13.07.21.19.1.18-.06.25-.04.25-.07.24-.07.31-.04.25-.04.25.09.12.14.11.25.09.18.04.25.09.17.13.21.09.29.02.25.02.28.05.27.02.27.07.25.02.24v.25l.04.25.1.25.04.25.14.19.07.2v.16Zm-.81.25l-.07.11-.09.04-.07-.14.14-.14.09.14Z"/>
    <path class="cls-1" d="m181.02,206.71l-.13.07-.14-.11.11-.14.17.04v.15Zm3.99,4.12l-.04.25-.09.27-.12.24-.18.18-.23.2-.2.07-.22.12-.19.09-.27.02h-.55l-.18-.14-.25-.02-.34-.09-.29-.11-.17-.14-.18-.07-.11-.2-.1-.19v-.25l.1-.25.07-.16.12-.18.15-.03.07.15-.07.19-.02.22v.25l.12.19.24.09.25.1.22.09.36.04.23.11.29-.07.24-.07.18-.11.24-.17.18-.14.13-.13.02-.25v-.29l-.09-.22-.18-.23-.25-.09-.3-.15-.11-.11-.33-.17-.23-.14-.25-.11-.16-.09-.24-.06-.16-.02-.22-.12-.2-.12-.12-.22-.12-.18-.09-.24-.02-.27.07-.25.02-.22.11-.25.14-.21.15-.2.04-.11.12-.16h.17l.05-.18.19-.05.2-.11.24-.02.26-.04.34-.11.31-.07h.25l.25.07.18.11.21.17.13.09.14.2.05.12v.25l-.12.19-.12.13-.22.09-.36.04-.29-.04-.25-.02-.27.05-.26.12-.18.13-.17.18-.07.25.11.19.17.15.23.05.17.12.16.14.19.15.16.18.17.04.14.08.12.16.17.07.16.1.19.16.14.18.02.25.05.29.04.25Z"/>
  </g>
  <g>
    <path class="cls-2" d="m90.25,184.59c0,5.69-4.79,9.95-11.12,9.95-2.13,0-5.37-.32-7.77-.32s-4.68.11-6.44.11c-.21,0-.21-.64,0-.64,3.56,0,4.36-.58,4.36-3.67v-24.63c0-3.03-.75-3.67-4.31-3.67-.16,0-.16-.64,0-.64,1.75,0,3.99.16,6.38.16,1.86,0,4.42-.32,6.38-.32,6.28,0,9.26,2.87,9.26,6.97,0,3.46-2.29,6.28-6.22,7.71,5.74.53,9.47,4.2,9.47,8.99Zm-16.75-19.1v10.11c1.33.05,2.23.05,2.34.05,4.95,0,6.97-3.24,6.97-7.34,0-3.78-1.81-6.49-6.12-6.49-2.34,0-3.19.43-3.19,3.67Zm12.23,20.37c0-5.27-2.98-8.94-8.56-8.99-1.06-.05-2.34,0-3.67.11v13.03c0,2.45.74,3.46,4.79,3.46,5.21,0,7.45-2.82,7.45-7.61Z"/>
    <path class="cls-2" d="m111.36,175.76c0,1.06-.69,1.92-1.97,1.92-1.76,0-2.02-1.81-3.72-1.81-.8,0-1.44.32-3.62,2.71v11.44c0,2.93.9,3.67,5.05,3.67.21,0,.21.64,0,.64-1.81,0-4.26-.11-6.86-.11-1.92,0-3.72.11-5.05.11-.16,0-.16-.64,0-.64,2.61,0,3.24-.74,3.24-3.67v-10.32c0-2.34-.53-3.35-1.86-3.35-.69,0-1.6.27-2.77.74-.27.16-.53-.48-.27-.58l6.6-3.14c.11-.05.21-.11.32-.11.64,0,1.54,1.54,1.6,4.31,2.98-3.35,4.47-4.31,5.96-4.31s3.35,1.06,3.35,2.5Z"/>
    <path class="cls-2" d="m132,191.66c-2.55,2.39-5.11,3.3-7.98,3.3-6.65,0-10.21-4.95-10.21-10.27,0-6.33,5-11.38,11.65-11.38,4.04,0,6.28,2.02,6.28,5.27,0,.8-.11,1.38-.58,1.38l-13.03.05c-.16.8-.21,1.65-.21,2.61,0,6.01,3.03,10.21,8.3,10.21,1.75,0,3.78-.48,5.42-1.65.21-.11.59.32.37.48Zm-13.72-12.5l9.15-.21c-.11-2.87-1.49-4.57-3.83-4.57-2.71,0-4.58,1.81-5.32,4.79Z"/>
    <path class="cls-2" d="m157.11,174.43c-1.86,0-3.08,1.12-4.36,4.15l-6.6,15.69c-.16.32-1.06.32-1.22,0l-7.66-16.06c-1.49-3.19-2.29-3.78-3.72-3.78-.16,0-.16-.64,0-.64,1.12,0,2.39.11,4.2.11,2.55,0,4.31-.11,5.9-.11.16,0,.16.64,0,.64-2.23,0-3.78.37-2.93,2.07l6.28,12.93,4.52-11.01c1.12-2.66-.11-3.99-3.56-3.99-.16,0-.16-.64,0-.64,1.7,0,2.92.11,5.37.11,1.6,0,2.34-.11,3.78-.11.16,0,.16.64,0,.64Z"/>
    <path class="cls-2" d="m177.05,191.66c-2.55,2.39-5.11,3.3-7.98,3.3-6.65,0-10.21-4.95-10.21-10.27,0-6.33,5-11.38,11.65-11.38,4.04,0,6.28,2.02,6.28,5.27,0,.8-.11,1.38-.58,1.38l-13.03.05c-.16.8-.21,1.65-.21,2.61,0,6.01,3.03,10.21,8.3,10.21,1.75,0,3.78-.48,5.42-1.65.21-.11.59.32.37.48Zm-13.72-12.5l9.15-.21c-.11-2.87-1.49-4.57-3.83-4.57-2.71,0-4.58,1.81-5.32,4.79Z"/>
  </g>
</svg>